<?xml version="1.0" ?><svg enable-background="new 0 0 512 512" height="512px" id="Layer_1" version="1.1" viewBox="0 0 512 512" width="512px" xml:space="preserve" xmlns="http://www.w3.org/2000/svg" xmlns:xlink="http://www.w3.org/1999/xlink"><g><g><path d="    M241.2,264.2c0.3-23.9-41.5-27.5-54.5-0.7c-7,14.4,7.2,31.5,13.1,49c10.8,31.8,19.9,50.9,39.7,42.8c17.9-7.3,5.7-31.3,0.2-46.6    C235.4,296.8,241,278.3,241.2,264.2z" fill="none" stroke="#000000" stroke-linecap="round" stroke-linejoin="round" stroke-miterlimit="10" stroke-width="8"/><ellipse cx="233.5" cy="225.2" rx="12.3" ry="9.1" transform="matrix(4.116101e-03 -1 1 4.116101e-03 7.3762 457.7454)"/><ellipse cx="213.7" cy="226.4" rx="6.8" ry="9.1" transform="matrix(0.997 -7.752388e-02 7.752388e-02 0.997 -16.9116 17.2449)"/><ellipse cx="198.2" cy="231.3" rx="5.7" ry="7.7" transform="matrix(0.9458 -0.3247 0.3247 0.9458 -64.3607 76.8798)"/><ellipse cx="186.4" cy="240" rx="5.1" ry="6.9" transform="matrix(0.8306 -0.5568 0.5568 0.8306 -102.063 144.451)"/><ellipse cx="177.1" cy="250.7" rx="4.3" ry="5.7" transform="matrix(0.6576 -0.7534 0.7534 0.6576 -128.2301 219.2391)"/></g><path d="   M271.2,206.3c-0.8-23.9,40.9-28.4,54.5-1.9c7.3,14.2-6.5,31.7-12.1,49.3c-10.1,32-18.8,51.4-38.7,43.7c-18-6.9-6.4-31.2-1.3-46.6   C277.6,238.8,271.7,220.4,271.2,206.3z" fill="none" stroke="#000000" stroke-linecap="round" stroke-linejoin="round" stroke-miterlimit="10" stroke-width="8"/><ellipse cx="278" cy="167.1" rx="9.1" ry="12.3" transform="matrix(0.9997 -2.604771e-02 2.604771e-02 0.9997 -4.2587 7.2975)"/><ellipse cx="297.9" cy="168" rx="9.1" ry="6.8" transform="matrix(5.563845e-02 -0.9985 0.9985 5.563845e-02 113.5906 455.9984)"/><ellipse cx="313.4" cy="172.5" rx="7.7" ry="5.7" transform="matrix(0.3039 -0.9527 0.9527 0.3039 53.8891 418.6624)"/><ellipse cx="325.4" cy="180.9" rx="6.9" ry="5.1" transform="matrix(0.5385 -0.8426 0.8426 0.5385 -2.2612 357.6706)"/><ellipse cx="335" cy="191.4" rx="5.7" ry="4.3" transform="matrix(0.7388 -0.674 0.674 0.7388 -41.4864 275.7441)"/></g></svg>