<?xml version="1.0" standalone="no"?>
<!DOCTYPE svg PUBLIC "-//W3C//DTD SVG 20010904//EN"
 "http://www.w3.org/TR/2001/REC-SVG-20010904/DTD/svg10.dtd">
<svg version="1.0" xmlns="http://www.w3.org/2000/svg"
 width="600.000000pt" height="595.000000pt" viewBox="0 0 600.000000 595.000000"
 preserveAspectRatio="xMidYMid meet">

<g transform="translate(0.000000,595.000000) scale(0.100000,-0.100000)"
fill="#000000" stroke="none">
<path d="M2705 5928 c-169 -19 -570 -104 -600 -127 -5 -5 -33 -14 -62 -21 -29
-6 -57 -18 -64 -26 -6 -7 -15 -12 -19 -9 -5 3 -33 -6 -64 -20 -30 -14 -58 -25
-61 -25 -17 0 -95 -42 -95 -51 0 -6 -4 -8 -10 -4 -10 6 -42 -9 -74 -35 -10 -8
-20 -14 -22 -12 -8 6 -154 -70 -154 -79 0 -5 -6 -9 -13 -9 -7 0 -23 -9 -35
-20 -12 -11 -25 -20 -30 -20 -5 0 -17 -9 -27 -20 -10 -11 -23 -20 -30 -20 -7
0 -20 -9 -30 -20 -10 -11 -23 -20 -29 -20 -6 0 -25 -14 -43 -30 -18 -17 -36
-30 -40 -30 -4 0 -22 -13 -38 -28 -17 -16 -36 -31 -43 -33 -16 -5 -442 -431
-442 -441 0 -5 -12 -21 -26 -36 -22 -23 -54 -66 -89 -120 -5 -9 -18 -25 -27
-36 -10 -11 -18 -25 -18 -31 0 -7 -9 -20 -20 -30 -11 -10 -20 -22 -20 -26 0
-4 -13 -28 -30 -52 -16 -25 -30 -49 -30 -55 0 -5 -7 -16 -16 -23 -14 -11 -35
-53 -35 -69 0 -3 -7 -13 -16 -22 -8 -9 -12 -22 -8 -27 3 -6 2 -11 -4 -11 -9 0
-91 -157 -91 -174 0 -4 -11 -32 -25 -62 -14 -31 -23 -59 -20 -64 3 -4 -2 -13
-9 -19 -8 -7 -20 -35 -26 -64 -7 -29 -16 -57 -21 -62 -10 -13 -63 -224 -90
-357 -21 -104 -32 -196 -49 -408 -10 -121 -3 -317 11 -326 5 -3 9 -51 9 -108
0 -56 4 -106 9 -111 5 -6 11 -28 14 -50 3 -22 9 -64 13 -93 3 -29 11 -55 15
-58 5 -3 9 -25 9 -49 0 -24 5 -47 10 -50 6 -3 10 -17 10 -30 0 -13 5 -27 10
-30 6 -3 10 -21 10 -40 0 -19 5 -37 10 -40 6 -3 10 -17 10 -30 0 -13 5 -27 10
-30 6 -3 10 -15 10 -25 0 -11 9 -35 20 -55 11 -20 20 -44 20 -55 0 -11 5 -20
10 -20 6 0 10 -9 10 -19 0 -11 5 -23 10 -26 6 -3 10 -14 10 -23 0 -20 120
-264 142 -290 8 -9 22 -34 32 -54 9 -20 21 -40 26 -43 6 -3 19 -25 29 -48 11
-23 31 -53 45 -66 14 -14 26 -30 26 -36 0 -6 13 -24 30 -40 16 -16 30 -33 30
-37 0 -5 13 -23 30 -41 16 -18 30 -37 30 -42 0 -19 423 -430 463 -450 21 -11
50 -32 64 -47 15 -16 31 -28 36 -28 18 0 36 34 37 67 0 17 5 35 10 38 6 3 10
28 10 56 0 27 4 49 9 49 4 0 12 26 16 57 4 32 12 90 17 128 12 87 22 795 11
795 -4 0 -9 30 -11 68 -2 39 -28 167 -63 307 l-60 240 3 185 c4 161 7 192 26
239 12 30 19 57 17 62 -3 4 -1 10 4 13 21 13 70 198 92 346 6 36 14 160 19
275 5 116 14 239 19 275 10 68 51 203 64 208 4 2 7 10 7 19 0 24 34 65 141
169 87 86 132 142 134 166 0 3 3 10 8 14 12 13 8 115 -9 194 -20 96 -13 231
16 295 11 24 20 48 20 53 0 5 11 19 25 32 14 13 25 28 25 34 1 15 113 125 144
141 14 8 38 20 53 29 170 93 332 99 409 15 15 -16 20 -40 22 -103 3 -71 0 -90
-25 -151 -16 -38 -51 -103 -78 -144 -28 -40 -55 -81 -60 -91 -6 -10 -16 -24
-22 -31 -6 -8 -30 -52 -53 -98 -63 -124 -63 -123 120 -306 82 -82 150 -155
150 -161 0 -7 7 -17 16 -24 8 -8 36 -56 61 -109 25 -53 49 -104 54 -113 5 -10
9 -25 9 -33 0 -8 5 -15 10 -15 6 0 10 -7 10 -15 0 -8 10 -37 21 -63 39 -87 47
-107 79 -202 18 -52 36 -99 40 -104 5 -5 7 -14 4 -20 -4 -12 146 -163 183
-183 13 -7 30 -13 38 -13 9 0 28 -8 42 -17 23 -15 57 -19 211 -21 125 -3 188
0 195 7 6 6 26 11 43 11 18 0 36 4 39 10 3 6 17 10 30 10 13 0 27 5 30 10 3 6
14 10 24 10 9 0 57 20 105 44 95 48 201 139 230 197 18 36 23 189 6 189 -5 0
-10 9 -10 19 0 11 -5 21 -11 23 -15 5 -15 271 0 276 6 2 11 12 11 23 0 20 3
27 35 88 19 36 197 221 213 221 5 0 17 9 27 20 10 11 26 20 36 20 10 0 34 9
54 20 30 17 54 20 144 20 l108 0 41 -41 42 -41 0 -94 c0 -56 -4 -94 -10 -94
-5 0 -10 -9 -10 -20 0 -11 -4 -20 -10 -20 -5 0 -10 -9 -10 -20 0 -11 -4 -20
-10 -20 -5 0 -10 -5 -10 -12 0 -15 -83 -182 -92 -186 -5 -2 -8 -12 -8 -23 0
-10 -4 -19 -10 -19 -5 0 -10 -7 -10 -16 0 -16 -38 -76 -52 -82 -4 -2 -8 -27
-8 -56 0 -42 5 -57 23 -74 24 -23 71 -30 82 -12 3 6 14 10 24 10 21 0 78 27
86 40 3 5 21 17 40 26 19 9 35 20 35 25 0 5 6 9 13 9 8 0 22 9 32 20 10 11 23
20 30 20 6 0 24 14 40 30 16 17 34 30 41 30 16 0 194 179 194 195 0 7 7 18 15
25 8 7 26 36 41 65 15 31 55 83 97 124 l72 71 76 0 77 0 42 -42 43 -43 0 -109
c-1 -60 -5 -111 -10 -115 -4 -3 -24 -36 -42 -73 -19 -38 -38 -68 -42 -68 -5 0
-9 -6 -9 -12 0 -7 -14 -27 -30 -45 -17 -18 -30 -36 -30 -40 0 -4 -22 -30 -50
-58 -27 -27 -49 -55 -50 -60 0 -6 -40 -51 -90 -100 -49 -49 -90 -94 -90 -100
0 -5 -50 -59 -110 -120 -60 -60 -110 -115 -110 -121 0 -5 -13 -23 -30 -39 -16
-16 -30 -34 -30 -40 0 -7 -9 -20 -20 -30 -11 -10 -20 -26 -20 -37 0 -10 -4
-18 -10 -18 -5 0 -10 -9 -10 -20 0 -11 -4 -20 -10 -20 -5 0 -10 -11 -10 -24 0
-14 -4 -28 -10 -31 -13 -8 -13 -272 0 -280 6 -3 10 -30 10 -60 0 -30 5 -57 10
-60 6 -3 10 -26 10 -50 0 -24 5 -47 10 -50 6 -3 10 -30 10 -60 0 -30 5 -57 10
-60 6 -3 10 -21 10 -40 0 -19 5 -37 10 -40 6 -3 10 -17 10 -30 0 -13 5 -27 10
-30 6 -3 10 -17 10 -30 0 -13 5 -27 10 -30 6 -3 10 -21 10 -40 0 -19 5 -37 10
-40 6 -3 10 -17 10 -30 0 -13 5 -27 10 -30 6 -3 10 -15 10 -25 0 -11 9 -35 20
-55 11 -20 20 -42 20 -49 0 -8 14 -40 30 -71 17 -31 30 -66 30 -76 0 -10 5
-19 10 -19 6 0 10 -6 10 -12 0 -17 81 -179 97 -196 8 -8 22 -33 33 -56 10 -24
26 -49 35 -56 8 -7 15 -19 15 -26 0 -8 5 -14 10 -14 6 0 10 -9 10 -20 0 -11 4
-20 9 -20 5 0 16 -15 24 -33 9 -18 27 -43 42 -57 l26 -24 49 49 c27 28 49 55
50 61 0 5 14 23 30 39 17 16 30 34 30 40 0 6 11 22 25 35 14 13 37 48 51 77
15 29 29 53 33 53 3 0 12 15 20 33 8 17 20 40 29 49 19 23 82 148 82 165 0 7
3 13 8 13 8 0 32 49 32 67 0 7 5 13 10 13 6 0 10 9 10 20 0 11 9 35 20 55 11
20 20 44 20 55 0 10 5 22 10 25 6 3 10 15 10 25 0 11 9 35 20 55 11 20 20 47
20 60 0 14 5 25 10 25 6 0 10 15 10 34 0 19 5 38 10 41 6 3 10 21 10 40 0 19
5 37 10 40 6 3 10 21 10 40 0 19 4 36 9 39 4 3 11 27 15 53 14 108 18 129 26
148 13 28 19 118 26 365 5 174 3 240 -11 340 -10 69 -21 152 -25 185 -4 33
-10 71 -13 85 -32 138 -63 257 -82 315 -12 39 -26 84 -30 102 -3 17 -13 37
-21 43 -7 7 -12 16 -9 20 3 5 -6 33 -20 64 -14 30 -25 58 -25 62 0 13 -121
254 -131 260 -5 3 -18 24 -28 47 -11 23 -31 59 -45 80 -14 21 -26 41 -26 46 0
4 -9 16 -20 26 -11 10 -20 24 -20 30 0 7 -7 19 -16 26 -9 7 -20 22 -25 34 -12
26 -53 82 -90 122 -16 18 -29 36 -29 41 0 12 -387 395 -407 403 -10 4 -38 28
-62 53 -24 25 -48 46 -53 46 -5 0 -23 13 -41 30 -18 16 -37 30 -43 30 -6 0
-21 12 -35 26 -13 14 -42 34 -65 44 -22 11 -47 26 -54 35 -7 8 -17 15 -23 15
-6 0 -18 7 -28 16 -26 24 -231 124 -240 118 -5 -3 -9 -1 -9 5 0 9 -78 51 -95
51 -3 0 -31 11 -61 25 -30 14 -60 25 -67 25 -7 0 -17 4 -22 9 -20 20 -279 89
-527 141 -58 12 -135 20 -192 20 -52 0 -98 4 -101 10 -8 12 -375 11 -490 -2z"/>
<path d="M2885 2730 c-16 -4 -42 -12 -57 -18 -31 -13 -108 -91 -108 -109 0 -7
-4 -13 -10 -13 -5 0 -10 -7 -10 -15 0 -9 -11 -38 -25 -65 -24 -47 -52 -145
-74 -260 -52 -272 -18 -1869 40 -1906 5 -3 9 -15 9 -27 0 -12 9 -37 20 -55 11
-18 20 -39 20 -47 0 -8 5 -15 10 -15 6 0 10 -5 10 -11 0 -19 79 -107 116 -129
18 -12 34 -27 34 -35 0 -18 112 -28 228 -20 53 4 102 11 107 15 6 5 42 11 80
14 170 14 201 17 220 26 11 5 38 11 60 14 97 13 123 19 175 44 63 29 159 121
185 176 15 32 17 55 11 184 -10 230 -17 326 -27 336 -5 6 -9 43 -9 82 0 40 -4
76 -10 79 -5 3 -10 39 -10 80 0 41 -4 77 -10 80 -5 3 -10 39 -10 80 0 41 -4
77 -10 80 -5 3 -10 39 -10 79 0 39 -4 76 -9 82 -5 5 -12 41 -15 79 -14 161
-18 190 -27 200 -5 5 -9 37 -9 71 0 35 -4 66 -10 69 -5 3 -10 30 -10 60 0 30
-4 57 -10 60 -5 3 -10 26 -10 50 0 24 -4 47 -10 50 -5 3 -10 26 -10 50 0 24
-4 47 -10 50 -5 3 -10 17 -10 30 0 13 -4 27 -10 30 -5 3 -10 17 -10 30 0 13
-4 27 -10 30 -5 3 -10 14 -10 25 0 18 -35 92 -55 118 -10 12 -138 138 -159
157 -21 18 -55 35 -71 35 -8 0 -15 5 -15 10 0 6 -9 10 -19 10 -11 0 -23 5 -26
10 -3 6 -15 10 -26 10 -10 0 -27 4 -37 10 -55 31 -281 50 -357 30z"/>
<path d="M1861 1580 c-10 -17 -25 -70 -34 -118 -9 -48 -18 -100 -22 -117 -34
-177 -37 -805 -4 -805 5 0 9 -22 9 -50 0 -27 5 -50 10 -50 6 0 10 -13 10 -30
0 -16 5 -30 10 -30 6 0 10 -11 10 -24 0 -14 5 -28 10 -31 6 -3 10 -17 10 -30
0 -28 54 -85 81 -85 11 0 30 -7 43 -15 22 -15 26 -14 50 8 14 13 26 35 26 49
0 13 5 29 10 34 14 14 6 677 -8 784 -13 96 -28 183 -41 240 -5 25 -17 79 -26
120 -18 81 -36 123 -68 158 -28 30 -54 28 -76 -8z"/>
<path d="M4355 1533 c-14 -15 -25 -37 -25 -48 0 -12 -5 -26 -10 -31 -14 -14
-7 -573 8 -634 6 -25 18 -79 27 -120 9 -41 21 -82 26 -92 5 -9 9 -28 9 -42 0
-14 5 -28 10 -31 6 -3 10 -15 10 -25 0 -10 16 -35 35 -55 39 -42 63 -42 119
-1 17 13 51 34 76 47 82 43 198 145 218 192 15 34 16 74 2 82 -5 3 -10 21 -10
40 0 19 -4 37 -10 40 -5 3 -10 17 -10 30 0 13 -4 27 -10 30 -5 3 -10 17 -10
30 0 13 -4 27 -10 30 -5 3 -10 15 -10 25 0 11 -9 35 -20 55 -11 20 -20 41 -20
49 0 15 -34 83 -71 141 -14 22 -33 56 -42 76 -9 21 -33 53 -52 72 -19 19 -35
39 -35 44 0 15 -90 104 -116 113 -39 15 -51 12 -79 -17z"/>
</g>
</svg>
