<?xml version="1.0" ?><!DOCTYPE svg  PUBLIC '-//W3C//DTD SVG 1.1//EN'  'http://www.w3.org/Graphics/SVG/1.1/DTD/svg11.dtd'><svg enable-background="new 0 0 512 512" height="512px" id="Layer_1" version="1.1" viewBox="0 0 512 512" width="512px" xml:space="preserve" xmlns="http://www.w3.org/2000/svg" xmlns:xlink="http://www.w3.org/1999/xlink"><g><path d="M411.906,86.119c-3.384-2.625-8.149-2.503-11.395,0.294L256.553,210.517c-3.654,3.15-4.174,8.623-1.178,12.405   c0,0,43.04,54.331,57.537,72.622c-15.867,28.407-59.417,115.234-61.401,119.193c-1.922,3.834-0.871,8.492,2.511,11.13   c1.631,1.271,3.584,1.903,5.534,1.903c2.097,0,4.189-0.729,5.873-2.18l143.787-123.787c3.655-3.146,4.18-8.615,1.19-12.399   c-0.434-0.549-40.191-50.875-57.362-72.46c16.293-28.857,59.442-115.757,61.406-119.714   C416.354,93.394,415.291,88.746,411.906,86.119z M334.497,213.019c-1.987,3.232-1.733,7.364,0.635,10.329   c11.12,13.924,43.05,54.312,55.801,70.445l-102.931,88.613c15.973-31.454,36.594-71.621,43.465-83.024   c1.938-3.216,1.675-7.297-0.658-10.238c-6.171-7.778-42.183-53.235-55.963-70.631l103.37-89.113   C362.35,160.878,341.73,201.251,334.497,213.019z"/><path d="M100.076,425.867c1.631,1.271,3.584,1.903,5.534,1.903c2.097,0,4.189-0.729,5.873-2.18l143.787-123.787   c3.655-3.146,4.18-8.615,1.19-12.399c-0.434-0.549-40.191-50.875-57.362-72.46c16.293-28.857,59.442-115.757,61.406-119.714   c1.904-3.837,0.841-8.484-2.544-11.111c-3.384-2.625-8.149-2.503-11.395,0.294L102.607,210.517   c-3.654,3.15-4.174,8.623-1.178,12.405c0,0,43.04,54.331,57.537,72.622C143.1,323.951,99.55,410.778,97.565,414.737   C95.644,418.571,96.694,423.229,100.076,425.867z M177.521,299.382c1.938-3.216,1.675-7.297-0.658-10.238   c-6.171-7.778-42.183-53.235-55.963-70.631l103.37-89.113c-15.866,31.479-36.485,71.852-43.719,83.619   c-1.987,3.232-1.733,7.364,0.635,10.329c11.12,13.924,43.05,54.312,55.801,70.445l-102.931,88.613   C150.029,350.952,170.65,310.785,177.521,299.382z"/></g></svg>